<svg width="277" height="272" viewBox="0 0 277 272" fill="none" xmlns="http://www.w3.org/2000/svg">
<path fill-rule="evenodd" clip-rule="evenodd" d="M270.217 7.25946C278.932 16.5306 278.481 31.1112 269.21 39.8261L38.8189 256.394C29.5477 265.109 14.9671 264.658 6.25225 255.387C-2.46265 246.115 -2.01171 231.535 7.25946 222.82L237.651 6.25225C246.922 -2.46265 261.502 -2.0117 270.217 7.25946Z" fill="#CB2727"/>
<path fill-rule="evenodd" clip-rule="evenodd" d="M255.185 265.792C245.813 274.398 231.239 273.778 222.632 264.406L15.28 38.623C6.67335 29.2513 7.29353 14.6769 16.6652 6.07025C26.0369 -2.53644 40.6113 -1.91626 49.218 7.45545L256.57 233.239C265.177 242.61 264.557 257.185 255.185 265.792Z" fill="#FEC80B"/>
<path d="M59.9102 133.627C59.9102 92.9093 92.918 59.9014 133.635 59.9014C174.353 59.9014 207.36 92.9093 207.36 133.627C207.36 174.344 174.353 207.352 133.635 207.352C92.918 207.352 59.9102 174.344 59.9102 133.627Z" fill="white"/>
<path fill-rule="evenodd" clip-rule="evenodd" d="M87.5571 133.627C87.5571 159.075 108.187 179.705 133.635 179.705C159.084 179.705 179.714 159.075 179.714 133.627C179.714 108.178 159.084 87.5483 133.635 87.5483C108.187 87.5483 87.5571 108.178 87.5571 133.627ZM133.635 59.9014C92.918 59.9014 59.9102 92.9093 59.9102 133.627C59.9102 174.344 92.918 207.352 133.635 207.352C174.353 207.352 207.36 174.344 207.36 133.627C207.36 92.9093 174.353 59.9014 133.635 59.9014Z" fill="black"/>
</svg>
