<svg width="277" height="273" viewBox="0 0 277 273" fill="none" xmlns="http://www.w3.org/2000/svg">
<path fill-rule="evenodd" clip-rule="evenodd" d="M270.228 7.52045C278.942 16.7916 278.492 31.3722 269.22 40.0871L38.8292 256.655C29.558 265.37 14.9774 264.919 6.2625 255.648C-2.4524 246.376 -2.00145 231.796 7.26972 223.081L237.661 6.51323C246.932 -2.20167 261.513 -1.75072 270.228 7.52045Z" fill="#CB2727"/>
<path fill-rule="evenodd" clip-rule="evenodd" d="M255.195 266.053C245.823 274.659 231.249 274.039 222.642 264.667L15.29 38.884C6.68337 29.5123 7.30354 14.9379 16.6753 6.33124C26.047 -2.27545 40.6213 -1.65527 49.228 7.71644L256.58 233.5C265.187 242.871 264.567 257.446 255.195 266.053Z" fill="#FEC80B"/>
<path d="M59.9205 133.888C59.9205 93.1705 92.9284 60.1626 133.646 60.1626C174.363 60.1626 207.371 93.1705 207.371 133.888C207.371 174.605 174.363 207.613 133.646 207.613C92.9284 207.613 59.9205 174.605 59.9205 133.888Z" fill="#464646"/>
<path fill-rule="evenodd" clip-rule="evenodd" d="M87.5675 133.888C87.5675 159.336 108.197 179.966 133.646 179.966C159.094 179.966 179.724 159.336 179.724 133.888C179.724 108.439 159.094 87.8095 133.646 87.8095C108.197 87.8095 87.5675 108.439 87.5675 133.888ZM133.646 60.1626C92.9284 60.1626 59.9205 93.1705 59.9205 133.888C59.9205 174.605 92.9284 207.613 133.646 207.613C174.363 207.613 207.371 174.605 207.371 133.888C207.371 93.1705 174.363 60.1626 133.646 60.1626Z" fill="white"/>
</svg>
